# xmcd CD database file
#
# Track frame offsets:
#	150
#	16384
#	32816
#	52267
#	68668
#	87739
#	103360
#	116550
#	132432
#	149701
#	167330
#	183533
#	199724
#	216231
#	232381
#	245804
#
# Disc length: 3543 seconds
#
# Revision: 0
# Processed by: cddbd v1.5.1PL0 Copyright (c) Steve Scherf et al.
# Submitted via: CDex 1.51
#
DISCID=040dd510
DTITLE=Shania Twain - Come on over
DYEAR=1999
DGENRE=Country
TTITLE0=You're Still The One
TTITLE1=When
TTITLE2=From This Moment On
TTITLE3=Black Eyes, Blue Tear
TTITLE4=I Won't Leave You Lonely
TTITLE5=I'm Holdin On To Love
TTITLE6=Come On Over
TTITLE7=You've Got a Way
TTITLE8=Whatever you do! Don't
TTITLE9=Man! I Feel Like A Woman
TTITLE10=Love gets me every time
TTITLE11=Don't be stupid
TTITLE12=That don't impress me much
TTITLE13=Honey, I'm home
TTITLE14=If you wanna touch her, aks!
TTITLE15=rock this country!
EXTD=YEAR: 1999
EXTT0=
EXTT1=
EXTT2=
EXTT3=
EXTT4=
EXTT5=
EXTT6=
EXTT7=
EXTT8=
EXTT9=
EXTT10=
EXTT11=
EXTT12=
EXTT13=
EXTT14=
EXTT15=
PLAYORDER=
